<svg xmlns="http://www.w3.org/2000/svg" version="1.1" xmlns:xlink="http://www.w3.org/1999/xlink" xmlns:svgjs="http://svgjs.dev/svgjs" width="1440" height="560" preserveAspectRatio="none" viewBox="0 0 1440 560"><g mask="url(&quot;#SvgjsMask1116&quot;)" fill="none"><rect width="1440" height="560" x="0" y="0" fill="#1e3266"></rect><path d="M1488 560L0 560 L0 431.68Q59.72 371.4, 120 431.13Q161.63 400.76, 192 442.4Q214.08 392.48, 264 414.56Q309.92 388.48, 336 434.4Q386.22 412.62, 408 462.83Q447.19 382.02, 528 421.22Q600.61 373.83, 648 446.44Q716.83 395.26, 768 464.09Q807.52 383.61, 888 423.13Q959.01 374.14, 1008 445.16Q1075.93 393.1, 1128 461.03Q1173.58 386.61, 1248 432.19Q1302.87 367.06, 1368 421.93Q1440.17 374.11, 1488 446.28z" fill="#182f5d"></path><path d="M1560 560L0 560 L0 500.17Q28.42 456.59, 72 485Q117.04 410.04, 192 455.09Q237.12 428.2, 264 473.32Q329.59 418.91, 384 484.51Q427.77 408.28, 504 452.05Q573.3 401.35, 624 470.64Q689.59 416.23, 744 481.81Q788.88 454.69, 816 499.56Q854.53 418.09, 936 456.62Q988.4 437.02, 1008 489.42Q1059.78 421.2, 1128 472.97Q1179.97 404.94, 1248 456.91Q1321.29 410.2, 1368 483.48Q1397.73 441.22, 1440 470.95Q1492.23 403.19, 1560 455.42z" fill="#25467d"></path><path d="M1536 560L0 560 L0 533.06Q30.66 491.72, 72 522.39Q120.68 451.06, 192 499.74Q258.01 445.75, 312 511.77Q356.63 484.39, 384 529.02Q423.51 448.53, 504 488.04Q546.63 458.67, 576 501.3Q642.9 448.21, 696 515.11Q761.8 460.91, 816 526.71Q839.46 478.17, 888 501.63Q918.64 460.27, 960 490.92Q1017.45 476.37, 1032 533.82Q1062.87 492.69, 1104 523.56Q1147.25 446.81, 1224 490.06Q1306.55 452.61, 1344 535.16Q1368.03 487.19, 1416 511.23Q1469.28 444.51, 1536 497.79z" fill="#356cb1"></path><path d="M1488 560L0 560 L0 574.03Q18.43 520.46, 72 538.9Q101.25 496.15, 144 525.41Q194.04 503.45, 216 553.49Q270.48 487.97, 336 542.45Q386.47 520.92, 408 571.4Q458.94 502.34, 528 553.28Q582.23 487.51, 648 541.74Q699.26 521, 720 572.26Q756.57 488.83, 840 525.4Q912.92 478.32, 960 551.24Q1006.8 526.04, 1032 572.83Q1050.99 519.82, 1104 538.81Q1147.89 510.7, 1176 554.6Q1221.86 480.46, 1296 526.32Q1364.07 474.39, 1416 542.46Q1463.37 517.83, 1488 565.2z" fill="white"></path></g><defs><mask id="SvgjsMask1116"><rect width="1440" height="560" fill="#ffffff"></rect></mask></defs></svg>